<?xml version="1.0" standalone="no"?>
<!DOCTYPE svg PUBLIC "-//W3C//DTD SVG 20010904//EN"
 "http://www.w3.org/TR/2001/REC-SVG-20010904/DTD/svg10.dtd">
<svg version="1.0" xmlns="http://www.w3.org/2000/svg"
 width="1263.000000pt" height="329.000000pt" viewBox="0 0 1263.000000 329.000000"
 preserveAspectRatio="xMidYMid meet">

<g transform="translate(0.000000,329.000000) scale(0.100000,-0.100000)"
fill="#000000" stroke="none">
<path d="M450 2601 c-177 -54 -259 -232 -174 -378 33 -57 101 -106 264 -193
157 -84 180 -99 238 -154 122 -117 70 -312 -93 -346 -175 -36 -347 56 -454
244 -18 31 -34 56 -36 56 -3 0 52 -276 60 -298 4 -9 12 -7 34 9 32 24 39 23
161 -11 62 -18 94 -21 185 -17 138 5 203 28 279 98 69 63 90 114 84 203 -7
121 -70 178 -346 316 -185 92 -248 144 -276 226 -21 61 -20 99 3 149 22 49 48
73 98 91 40 14 17 18 -27 5z"/>
<path d="M6820 2601 c-177 -54 -259 -232 -174 -378 33 -57 101 -106 264 -193
157 -84 180 -99 238 -154 122 -117 70 -312 -93 -346 -175 -36 -347 56 -454
244 -18 31 -34 56 -36 56 -3 0 52 -276 60 -298 4 -9 12 -7 34 9 32 24 39 23
161 -11 62 -18 94 -21 185 -17 138 5 203 28 279 98 69 63 90 114 84 203 -7
121 -70 178 -346 316 -185 92 -248 144 -276 226 -21 61 -20 99 3 149 22 49 48
73 98 91 40 14 17 18 -27 5z"/>
<path d="M878 2583 c-19 -18 -67 -22 -111 -10 -24 7 -19 -2 35 -52 41 -38 81
-89 112 -143 l47 -83 -6 55 c-4 30 -11 62 -15 70 -4 8 -8 33 -9 55 -3 62 -15
118 -26 122 -6 2 -18 -4 -27 -14z"/>
<path d="M7248 2583 c-19 -18 -67 -22 -111 -10 -24 7 -19 -2 35 -52 42 -39 80
-88 111 -143 26 -46 47 -74 46 -63 -1 51 -45 279 -54 282 -6 2 -18 -4 -27 -14z"/>
<path d="M9810 2359 c-138 -18 -272 -114 -333 -239 -30 -61 -32 -71 -32 -175
0 -103 2 -114 32 -178 62 -131 185 -216 343 -239 265 -37 494 113 530 348 47
303 -205 528 -540 483z m245 -78 c115 -51 172 -146 182 -303 13 -198 -54 -336
-196 -402 -66 -30 -216 -30 -282 0 -69 32 -123 86 -155 156 -27 60 -29 70 -29
198 0 106 4 146 19 189 29 85 100 151 196 182 14 5 68 7 120 6 73 -2 107 -8
145 -26z"/>
<path d="M1031 2258 c1 -85 3 -95 10 -60 12 62 38 100 84 122 36 17 62 20 193
20 l152 0 0 -349 c0 -192 -3 -363 -6 -380 -4 -17 -20 -45 -37 -61 l-31 -30
165 0 c151 1 162 2 137 16 -57 30 -58 40 -58 439 l0 365 133 0 c181 -1 229
-23 277 -133 12 -27 23 -47 25 -45 2 2 1 47 -2 101 l-6 97 -518 0 -519 0 1
-102z"/>
<path d="M2244 2329 l27 -31 -3 -359 -3 -358 -30 -31 -29 -30 264 2 c257 3
265 4 265 23 0 19 -8 20 -140 23 -112 2 -143 6 -157 19 -16 14 -18 35 -18 190
l0 173 139 0 c185 0 237 -10 279 -55 l32 -35 0 97 0 96 -23 -21 c-38 -35 -81
-44 -259 -49 l-168 -6 0 165 c0 114 4 168 12 176 8 8 66 12 193 12 214 0 266
-11 314 -65 l31 -36 0 66 0 65 -376 0 -376 0 26 -31z"/>
<path d="M3156 2327 c16 -18 117 -209 224 -425 107 -216 198 -391 204 -389 5
2 87 180 182 396 96 216 183 406 195 422 l20 29 -75 0 -76 0 21 -21 c34 -34
21 -80 -110 -385 l-120 -279 -121 250 c-67 138 -131 269 -141 293 -22 49 -25
112 -7 130 9 9 -14 12 -106 12 l-118 0 28 -33z"/>
<path d="M4194 2329 l27 -31 -3 -359 -3 -358 -30 -31 -29 -30 264 2 c257 3
265 4 265 23 0 19 -8 20 -140 23 -112 2 -143 6 -157 19 -16 14 -18 35 -18 190
l0 173 139 0 c185 0 237 -10 279 -55 l32 -35 0 97 0 96 -23 -21 c-38 -35 -81
-44 -259 -49 l-168 -6 0 165 c0 114 4 168 12 176 8 8 66 12 193 12 214 0 266
-11 314 -65 l31 -36 0 66 0 65 -376 0 -376 0 26 -31z"/>
<path d="M5103 2353 c43 -11 47 -44 47 -380 -1 -175 -5 -338 -9 -363 -6 -28
-19 -53 -36 -67 l-26 -23 101 0 102 0 -30 35 c-17 19 -34 49 -37 67 -3 18 -4
163 -3 321 l3 289 389 -361 c213 -199 392 -361 397 -361 5 0 9 163 9 368 0
221 4 382 10 404 6 20 22 46 37 58 l26 20 -101 0 -101 0 24 -24 c40 -40 46
-87 43 -352 l-3 -247 -335 311 -335 312 -95 -1 c-52 -1 -87 -3 -77 -6z"/>
<path d="M7411 2258 c1 -85 3 -95 10 -60 12 62 38 100 84 122 36 17 62 20 193
20 l152 0 0 -349 c0 -192 -3 -363 -6 -380 -4 -17 -20 -45 -37 -61 l-31 -30
165 0 c151 1 162 2 137 16 -57 30 -58 40 -58 439 l0 365 133 0 c181 -1 229
-23 277 -133 12 -27 23 -47 25 -45 2 2 1 47 -2 101 l-6 97 -518 0 -519 0 1
-102z"/>
<path d="M8596 2323 l25 -37 -3 -352 c-3 -349 -3 -353 -26 -383 l-23 -31 117
0 117 0 -24 26 c-23 25 -24 31 -27 199 l-3 173 61 7 c34 4 65 3 69 -1 5 -5 72
-90 151 -188 79 -98 151 -187 161 -197 16 -16 35 -19 101 -19 l82 0 -61 63
c-34 34 -116 127 -182 206 l-121 145 58 21 c117 42 167 101 167 196 0 44 -6
65 -27 97 -36 54 -128 100 -218 108 l-65 6 45 -27 c88 -52 130 -113 130 -190
0 -123 -113 -205 -282 -205 l-68 0 0 191 c0 112 4 198 10 210 10 18 6 19 -89
19 l-100 0 25 -37z"/>
<path d="M10463 2353 c43 -11 47 -44 47 -380 -1 -175 -5 -338 -9 -363 -6 -28
-19 -53 -36 -67 l-26 -23 101 0 102 0 -30 35 c-17 19 -34 49 -37 67 -3 18 -4
163 -3 321 l3 289 389 -361 c213 -199 392 -361 397 -361 5 0 9 163 9 368 0
221 4 382 10 404 6 20 22 46 37 58 l26 20 -101 0 -101 0 24 -24 c40 -40 46
-87 43 -352 l-3 -247 -335 311 -335 312 -95 -1 c-52 -1 -87 -3 -77 -6z"/>
<path d="M11861 2344 c-129 -35 -245 -125 -298 -231 -26 -53 -28 -67 -28 -168
0 -98 3 -116 26 -166 48 -103 136 -179 254 -219 89 -31 226 -43 329 -30 86 11
239 53 264 72 8 7 12 47 12 132 0 109 2 125 20 144 l21 22 -111 0 -111 0 23
-30 c18 -25 23 -47 26 -125 2 -52 1 -106 -2 -120 -8 -33 -53 -53 -147 -64
-200 -26 -368 59 -431 217 -32 83 -32 251 2 337 29 75 103 155 173 186 45 21
67 24 172 24 111 0 125 -2 183 -29 65 -30 124 -86 148 -140 12 -29 13 -23 14
77 l0 107 -27 -7 c-42 -12 -90 -9 -175 10 -94 21 -262 21 -337 1z"/>
<path d="M2946 1583 c-4 -4 -49 -10 -99 -13 -84 -5 -92 -7 -92 -25 0 -18 8
-20 79 -23 82 -3 103 5 127 50 10 18 -1 25 -15 11z"/>
<path d="M4896 1583 c-4 -4 -49 -10 -99 -13 -84 -5 -92 -7 -92 -25 0 -18 8
-20 79 -23 82 -3 103 5 127 50 10 18 -1 25 -15 11z"/>
</g>
</svg>
